<?xml version="1.0" encoding="UTF-8" standalone="no"?>
<svg
   id="Layer_1"
   viewBox="0 0 321.07651 298.3158"
   version="1.1"
   sodipodi:docname="user-centric.svg"
   width="321.07651"
   height="298.3158"
   inkscape:version="1.2.1 (9c6d41e, 2022-07-14)"
   xmlns:inkscape="http://www.inkscape.org/namespaces/inkscape"
   xmlns:sodipodi="http://sodipodi.sourceforge.net/DTD/sodipodi-0.dtd"
   xmlns="http://www.w3.org/2000/svg"
   xmlns:svg="http://www.w3.org/2000/svg">
  <sodipodi:namedview
     id="namedview201"
     pagecolor="#ffffff"
     bordercolor="#000000"
     borderopacity="0.25"
     inkscape:showpageshadow="2"
     inkscape:pageopacity="0.0"
     inkscape:pagecheckerboard="0"
     inkscape:deskcolor="#d1d1d1"
     showgrid="false"
     inkscape:zoom="0.472"
     inkscape:cx="-52.966102"
     inkscape:cy="152.54237"
     inkscape:window-width="1309"
     inkscape:window-height="430"
     inkscape:window-x="0"
     inkscape:window-y="1202"
     inkscape:window-maximized="0"
     inkscape:current-layer="Layer_1" />
  <defs
     id="defs134">
    <style
       id="style132">.cls-1{stroke-dasharray:1.94 3.88 1.94 3.88 1.94 3.88;stroke-width:1.13px;}.cls-1,.cls-2{stroke:#191919;stroke-linejoin:bevel;}.cls-1,.cls-2,.cls-3,.cls-4{fill:none;}.cls-1,.cls-2,.cls-4{stroke-linecap:round;}.cls-5{fill:#f51c2b;}.cls-5,.cls-3,.cls-4,.cls-6{stroke:#000;stroke-width:.63px;}.cls-5,.cls-4,.cls-6{stroke-linejoin:round;}.cls-7{fill:#fff;}.cls-8{fill:#440212;}.cls-2{stroke-dasharray:2.34 4.68 2.34 4.68 2.34 4.68;stroke-width:1.37px;}.cls-3{stroke-miterlimit:10;}.cls-9{fill:#b4ff4c;}.cls-6{fill:#212221;}</style>
  </defs>
  <polygon
     class="cls-5"
     points="258.11,127.32 171.56,254.12 258.11,380.82 343.05,254.14 "
     id="polygon136"
     transform="translate(-99.81898,-98.428202)" />
  <polygon
     class="cls-5"
     points="146.99,186.22 146.99,323.1 171.56,253.95 "
     id="polygon138"
     transform="translate(-99.81898,-98.428202)" />
  <polygon
     class="cls-6"
     points="258.11,144.95 325.68,254.18 258.07,363.36 188.5,254.14 "
     id="polygon140"
     transform="translate(-99.81898,-98.428202)" />
  <polygon
     class="cls-4"
     points="146.99,323.27 258.11,380.82 369.24,323.75 369.24,186.4 258.11,127.32 146.99,186.4 "
     id="polygon142"
     transform="translate(-99.81898,-98.428202)" />
  <polygon
     class="cls-5"
     points="146.99,186.4 171.56,254.12 258.11,127.32 "
     id="polygon144"
     transform="translate(-99.81898,-98.428202)" />
  <polygon
     class="cls-7"
     points="258.11,127.32 146.99,186.4 146.99,278.01 152.67,201.89 "
     id="polygon146"
     transform="translate(-99.81898,-98.428202)" />
  <polygon
     class="cls-5"
     points="369.24,186.4 258.11,127.32 343.05,254.14 "
     id="polygon148"
     transform="translate(-99.81898,-98.428202)" />
  <polygon
     class="cls-5"
     points="258.11,380.82 146.99,323.27 171.56,254.12 "
     id="polygon150"
     transform="translate(-99.81898,-98.428202)" />
  <polygon
     class="cls-5"
     points="369.24,323.75 258.11,380.82 343.05,254.14 "
     id="polygon152"
     transform="translate(-99.81898,-98.428202)" />
  <polygon
     class="cls-5"
     points="343.05,254.14 369.24,186.4 369.24,323.75 "
     id="polygon154"
     transform="translate(-99.81898,-98.428202)" />
  <line
     class="cls-6"
     x1="71.74102"
     y1="155.69179"
     x2="88.681023"
     y2="155.69179"
     id="line156" />
  <polygon
     class="cls-8"
     points="369.24,261.38 369.24,323.75 258.07,380.78 353.6,315.97 "
     id="polygon158"
     transform="translate(-99.81898,-98.428202)" />
  <line
     class="cls-3"
     x1="71.74102"
     y1="155.69179"
     x2="47.171024"
     y2="87.971794"
     id="line160" />
  <path
     class="cls-9"
     d="m 146.59102,117.3518 v 12.08 h -2.3 v -12.08 h -4.29 v -1.91 h 10.9 v 1.91 h -4.32 z"
     id="path162" />
  <path
     class="cls-9"
     d="m 159.58102,129.4318 v -6.24 h -4.71 v 6.24 h -2.25 v -14 h 2.25 v 5.85 h 4.71 v -5.85 h 2.26 v 14 z"
     id="path164" />
  <path
     class="cls-9"
     d="m 167.05102,123.1518 v 4.37 h 6.76 v 1.9 h -9.07 v -14 h 9.03 v 1.91 h -6.71 v 3.94 h 5.79 v 1.86 h -5.79 z"
     id="path166" />
  <path
     class="cls-9"
     d="m 131.85102,139.0618 v 1.91 h -2.99 v 10.18 h 2.99 v 1.9 h -8.25 v -1.9 h 2.92 v -10.18 h -2.92 v -1.91 z"
     id="path168" />
  <path
     class="cls-9"
     d="m 141.79102,153.0618 -4.55,-9.63 v 9.63 h -2.35 v -14 h 2.35 l 4.52,9.59 0.02,-9.59 h 2.33 v 14 z"
     id="path170" />
  <path
     class="cls-9"
     d="m 152.50102,140.9718 v 12.08 h -2.3 v -12.08 h -4.29 v -1.91 h 10.9 v 1.91 h -4.32 z"
     id="path172" />
  <path
     class="cls-9"
     d="m 161.14102,146.7818 v 4.37 h 6.76 v 1.9 h -9.07 v -14 h 9.03 v 1.91 h -6.71 v 3.94 h 5.79 v 1.86 h -5.79 z"
     id="path174" />
  <path
     class="cls-9"
     d="m 177.23102,153.0618 -4.55,-9.63 v 9.63 h -2.35 v -14 h 2.35 l 4.52,9.59 0.02,-9.59 h 2.33 v 14 z"
     id="path176" />
  <path
     class="cls-9"
     d="m 187.94102,140.9718 v 12.08 h -2.3 v -12.08 h -4.29 v -1.91 h 10.9 v 1.91 h -4.32 z"
     id="path178" />
  <path
     class="cls-9"
     d="m 121.82102,168.6718 1.91,-5.99 h 2.87 v 14 h -2.17 v -4.75 l 0.13,-6.25 -2.15,6.68 h -1.2 l -1.95,-6.45 0.12,6.02 v 4.75 h -2.16 v -14 h 2.86 l 1.73,5.99 z"
     id="path180" />
  <path
     class="cls-9"
     d="m 131.57102,173.4618 -0.95,3.22 h -2.4 l 4.56,-14 h 2.05 l 4.48,14 h -2.39 l -0.94,-3.22 h -4.39 z m 3.82,-1.98 -1.61,-5.54 -1.63,5.54 z"
     id="path182" />
  <path
     class="cls-9"
     d="m 149.95102,174.2318 c -0.26,0.55 -0.59,1.03 -1.01,1.42 -0.42,0.4 -0.92,0.7 -1.5,0.92 -0.58,0.21 -1.22,0.32 -1.93,0.32 -0.58,0 -1.11,-0.08 -1.59,-0.24 -0.48,-0.16 -0.92,-0.38 -1.29,-0.67 -0.37,-0.27 -0.68,-0.59 -0.96,-0.98 -0.28,-0.39 -0.5,-0.8 -0.69,-1.25 -0.19,-0.45 -0.33,-0.94 -0.42,-1.46 -0.09,-0.52 -0.14,-1.07 -0.14,-1.64 v -1.91 c 0,-0.54 0.04,-1.07 0.13,-1.58 0.09,-0.51 0.22,-0.98 0.4,-1.43 0.19,-0.5 0.44,-0.95 0.75,-1.36 0.3,-0.41 0.66,-0.75 1.05,-1.04 0.38,-0.26 0.8,-0.47 1.25,-0.62 0.46,-0.15 0.96,-0.22 1.5,-0.22 0.74,0 1.4,0.11 1.98,0.33 0.58,0.22 1.07,0.53 1.49,0.92 0.42,0.4 0.74,0.89 0.99,1.46 0.24,0.57 0.4,1.21 0.47,1.9 h -2.31 c -0.04,-0.42 -0.12,-0.79 -0.24,-1.13 -0.12,-0.34 -0.28,-0.62 -0.49,-0.86 -0.21,-0.24 -0.47,-0.42 -0.78,-0.54 -0.31,-0.12 -0.68,-0.19 -1.11,-0.19 -0.3,0 -0.57,0.04 -0.81,0.12 -0.24,0.08 -0.45,0.2 -0.64,0.36 -0.26,0.19 -0.47,0.43 -0.64,0.73 -0.17,0.3 -0.31,0.63 -0.42,0.99 -0.08,0.32 -0.15,0.66 -0.19,1.02 -0.04,0.36 -0.06,0.73 -0.06,1.11 v 1.93 c 0,0.47 0.03,0.91 0.08,1.32 0.05,0.41 0.14,0.79 0.25,1.12 0.09,0.28 0.2,0.54 0.34,0.77 0.14,0.23 0.3,0.43 0.5,0.6 0.2,0.18 0.43,0.32 0.69,0.41 0.26,0.09 0.56,0.14 0.89,0.14 0.4,0 0.75,-0.06 1.06,-0.17 0.31,-0.12 0.57,-0.29 0.79,-0.51 0.21,-0.22 0.38,-0.49 0.51,-0.82 0.13,-0.33 0.21,-0.7 0.25,-1.12 h 2.32 c -0.06,0.68 -0.22,1.3 -0.48,1.85 z"
     id="path184" />
  <path
     class="cls-9"
     d="m 159.58102,176.6818 v -6.24 h -4.71 v 6.24 h -2.25 v -14 h 2.25 v 5.85 h 4.71 v -5.85 h 2.26 v 14 z"
     id="path186" />
  <path
     class="cls-9"
     d="m 173.20102,162.6818 v 1.91 h -2.99 v 10.18 h 2.99 v 1.9 h -8.25 v -1.9 h 2.92 v -10.18 h -2.92 v -1.91 z"
     id="path188" />
  <path
     class="cls-9"
     d="m 183.14102,176.6818 -4.55,-9.63 v 9.63 h -2.35 v -14 h 2.35 l 4.52,9.59 0.02,-9.59 h 2.33 v 14 z"
     id="path190" />
  <path
     class="cls-9"
     d="m 190.68102,170.4018 v 4.37 h 6.76 v 1.9 h -9.07 v -14 h 9.03 v 1.91 h -6.71 v 3.94 h 5.79 v 1.86 h -5.79 z"
     id="path192" />
  <path
     class="cls-2"
     d="m 231.69102,66.051798 c 52.6,15.4 88.74,47.360002 88.74,84.290002 0,51.96 -71.58,94.09 -159.87,94.09 -88.29,0 -159.87999987,-42.12 -159.87999987,-94.09 0,-33.83 30.33999987,-63.490002 75.86999987,-80.070002"
     id="path194" />
  <path
     class="cls-1"
     d="m 158.60102,156.6018 c 73.22,0 132.57,-34.93 132.57,-78.020002 0,-43.09 -59.35,-78.01999966 -132.57,-78.01999966 -73.22,0 -132.57,34.92999966 -132.57,78.01999966 0,43.090002 59.35,78.020002 132.57,78.020002 z"
     id="path196" />
  <path
     class="cls-1"
     d="m 272.29102,180.8518 c 11.2,11.45 17.61,24.73 17.61,38.88 0,43.09 -59.36,78.02 -132.57,78.02 -73.21,0 -132.57,-34.93 -132.57,-78.02 0,-15.09 7.28,-29.18 19.88,-41.12"
     id="path198" />
</svg>
