<?xml version="1.0" encoding="UTF-8" standalone="no"?>
<svg
   id="Layer_1"
   viewBox="0 0 305.07001 347.82999"
   version="1.1"
   sodipodi:docname="compatible-any-chain.svg"
   width="305.07001"
   height="347.82999"
   inkscape:version="1.2.1 (9c6d41e, 2022-07-14)"
   xmlns:inkscape="http://www.inkscape.org/namespaces/inkscape"
   xmlns:sodipodi="http://sodipodi.sourceforge.net/DTD/sodipodi-0.dtd"
   xmlns="http://www.w3.org/2000/svg"
   xmlns:svg="http://www.w3.org/2000/svg">
  <sodipodi:namedview
     id="namedview228"
     pagecolor="#ffffff"
     bordercolor="#000000"
     borderopacity="0.25"
     inkscape:showpageshadow="2"
     inkscape:pageopacity="0.0"
     inkscape:pagecheckerboard="0"
     inkscape:deskcolor="#d1d1d1"
     showgrid="false"
     inkscape:zoom="0.472"
     inkscape:cx="-59.322034"
     inkscape:cy="175.84746"
     inkscape:window-width="1309"
     inkscape:window-height="430"
     inkscape:window-x="0"
     inkscape:window-y="1202"
     inkscape:window-maximized="0"
     inkscape:current-layer="Layer_1" />
  <defs
     id="defs137">
    <style
       id="style132">.cls-1,.cls-2,.cls-3,.cls-4,.cls-5{fill:none;}.cls-2{stroke:#fc0206;}.cls-2,.cls-3,.cls-4,.cls-5{stroke-miterlimit:10;}.cls-2,.cls-3,.cls-5{stroke-width:.71px;}.cls-6{fill:#fff;}.cls-3{stroke:#000;}.cls-7{fill:#fc0206;}.cls-4{stroke:#fc0234;stroke-width:.25px;}.cls-5{stroke:#f51c2b;}.cls-8{fill:#f51c2b;}.cls-9{clip-path:url(#clippath);}</style>
    <clipPath
       id="clippath">
      <rect
         class="cls-1"
         x="116.93"
         y="84.699997"
         width="282.54999"
         height="325.67999"
         id="rect134" />
    </clipPath>
  </defs>
  <g
     class="cls-9"
     clip-path="url(#clippath)"
     id="g179"
     transform="translate(-105.49,-73.619997)">
    <path
       class="cls-2"
       d="m 258.06,206.6 -35.52,61.5 h 71.05 l -35.52,-61.5 z"
       id="path139" />
    <path
       class="cls-2"
       d="M 293.64,226.95 258.2,206.5 222.76,226.95 v 40.9 l 35.44,20.45 35.44,-20.45 z"
       id="path141" />
    <path
       class="cls-2"
       d="m 222.77,226.95 35.44,61.34 35.44,-61.34 h -70.87 z"
       id="path143" />
    <path
       class="cls-5"
       d="M 258.06,165.71 187.1,288.54 H 329.01 L 258.05,165.71 Z"
       id="path145" />
    <path
       class="cls-5"
       d="M 258.06,87.14 119.02,327.83 H 397.1 Z"
       id="path147" />
    <path
       class="cls-4"
       d="M 399.08,166.11 258.21,84.82 117.34,166.11 v 162.58 l 140.87,81.29 140.87,-81.29 z"
       id="path149" />
    <path
       class="cls-5"
       d="M 184.72,127.22 329.01,369.11"
       id="path151" />
    <path
       class="cls-5"
       d="M 187.1,369.91 331.69,127.22"
       id="path153" />
    <path
       class="cls-5"
       d="M 117.34,247.4 H 399.08"
       id="path155" />
    <path
       class="cls-5"
       d="M 117.34,328.68 399.08,166.1 H 117.34 l 281.74,162.58"
       id="path157" />
    <path
       class="cls-5"
       d="M 188.24,207.02 258.2,328.14 328.17,207.02 Z"
       id="path159" />
    <path
       class="cls-5"
       d="M 117.34,166.11 258.21,409.97 V 84.82"
       id="path161" />
    <path
       class="cls-5"
       d="M 258.21,409.97 399.08,166.11"
       id="path163" />
    <path
       class="cls-8"
       d="m 257.89,206.25 -35.6,20.92 0.32,41.29 35.92,20.37 35.6,-20.92 -0.32,-41.29 -35.92,-20.36 z"
       id="path165" />
    <path
       class="cls-6"
       d="m 222.67,268.47 26.03,-33.42 9.14,-28.6 -20.54,11.89 -14.95,8.97 z"
       id="path167" />
    <path
       class="cls-3"
       d="m 257.85,206.45 -35.49,20.86 0.32,41.16 35.81,20.3 35.49,-20.86 -0.32,-41.16 -35.81,-20.31 z"
       id="path169" />
    <path
       class="cls-3"
       d="m 257.85,206.45 22.33,28.43 -43.61,0.19 21.27,-28.61 z"
       id="path171" />
    <path
       class="cls-3"
       d="m 222.35,227.31 14.22,7.75 -13.9,33.41 35.76,4.54 21.74,-38.14 13.48,-8.12"
       id="path173" />
    <path
       class="cls-3"
       d="m 258.48,288.78 -0.05,-15.76 35.54,-5.09 -13.8,-33.04"
       id="path175" />
    <path
       class="cls-3"
       d="m 236.57,235.07 21.86,37.95"
       id="path177" />
  </g>
  <circle
     class="cls-7"
     cx="11.08"
     cy="253.70999"
     r="11.08"
     id="circle181" />
  <circle
     class="cls-7"
     cx="12.730001"
     cy="94.400009"
     r="11.08"
     id="circle183" />
  <circle
     class="cls-7"
     cx="152.71999"
     cy="11.08"
     r="11.08"
     id="circle185" />
  <circle
     class="cls-7"
     cx="105.04"
     cy="92.970001"
     r="4.29"
     id="circle187" />
  <circle
     class="cls-7"
     cx="200.81999"
     cy="92.970001"
     r="4.29"
     id="circle189" />
  <circle
     class="cls-7"
     cx="226.55"
     cy="53.660004"
     r="4.29"
     id="circle191" />
  <circle
     class="cls-7"
     cx="79.310005"
     cy="53.660004"
     r="4.29"
     id="circle193" />
  <circle
     class="cls-7"
     cx="12.730001"
     cy="173.70001"
     r="4.29"
     id="circle195" />
  <circle
     class="cls-7"
     cx="81.450005"
     cy="296.56"
     r="4.29"
     id="circle197" />
  <circle
     class="cls-7"
     cx="222.25999"
     cy="296.56"
     r="4.29"
     id="circle199" />
  <circle
     class="cls-7"
     cx="177.23"
     cy="133.72"
     r="4.29"
     id="circle201" />
  <circle
     class="cls-7"
     cx="128.26999"
     cy="133.72"
     r="4.29"
     id="circle203" />
  <circle
     class="cls-7"
     cx="105.04"
     cy="173.70001"
     r="4.29"
     id="circle205" />
  <circle
     class="cls-7"
     cx="130.40999"
     cy="216.23001"
     r="4.29"
     id="circle207" />
  <circle
     class="cls-7"
     cx="175.43999"
     cy="216.23001"
     r="4.29"
     id="circle209" />
  <circle
     class="cls-7"
     cx="246.21001"
     cy="173.92"
     r="4.29"
     id="circle211" />
  <circle
     class="cls-7"
     cx="293.16"
     cy="173.92"
     r="4.29"
     id="circle213" />
  <circle
     class="cls-7"
     cx="59.68"
     cy="173.92"
     r="4.29"
     id="circle215" />
  <circle
     class="cls-7"
     cx="106.47001"
     cy="254.42001"
     r="4.29"
     id="circle217" />
  <circle
     class="cls-7"
     cx="199.39"
     cy="254.42001"
     r="4.29"
     id="circle219" />
  <circle
     class="cls-7"
     cx="293.99002"
     cy="94.400009"
     r="11.08"
     id="circle221" />
  <circle
     class="cls-7"
     cx="293.99002"
     cy="252.88"
     r="11.08"
     id="circle223" />
  <circle
     class="cls-7"
     cx="152.71999"
     cy="336.75"
     r="11.08"
     id="circle225" />
</svg>
