<?xml version="1.0" encoding="UTF-8" standalone="no"?>
<svg
   id="Layer_1"
   viewBox="0 0 283.74329 291.04999"
   version="1.1"
   sodipodi:docname="uniquely-expressive.svg"
   width="283.74329"
   height="291.04999"
   inkscape:version="1.2.1 (9c6d41e, 2022-07-14)"
   xmlns:inkscape="http://www.inkscape.org/namespaces/inkscape"
   xmlns:sodipodi="http://sodipodi.sourceforge.net/DTD/sodipodi-0.dtd"
   xmlns="http://www.w3.org/2000/svg"
   xmlns:svg="http://www.w3.org/2000/svg">
  <sodipodi:namedview
     id="namedview285"
     pagecolor="#ffffff"
     bordercolor="#000000"
     borderopacity="0.25"
     inkscape:showpageshadow="2"
     inkscape:pageopacity="0.0"
     inkscape:pagecheckerboard="0"
     inkscape:deskcolor="#d1d1d1"
     showgrid="false"
     inkscape:zoom="0.472"
     inkscape:cx="-63.559322"
     inkscape:cy="161.01695"
     inkscape:window-width="1309"
     inkscape:window-height="430"
     inkscape:window-x="0"
     inkscape:window-y="1202"
     inkscape:window-maximized="0"
     inkscape:current-layer="Layer_1" />
  <defs
     id="defs134">
    <style
       id="style132">.cls-1{fill:#e93323;}.cls-2{stroke-width:1.42px;}.cls-2,.cls-3,.cls-4{fill:none;}.cls-2,.cls-4{stroke:#191919;stroke-miterlimit:10;}.cls-5{fill:#979797;}.cls-3{stroke-width:.83px;}.cls-3,.cls-6,.cls-7,.cls-8,.cls-9{stroke:#000;}.cls-6{stroke-width:.22px;}.cls-6,.cls-7,.cls-8,.cls-9{fill:#f1f1f1;}.cls-7{stroke-width:.14px;}.cls-8{stroke-width:.35px;}.cls-9{stroke-width:.24px;}.cls-10{fill:#c4fc50;}.cls-4{stroke-width:.71px;}.cls-11{fill:#f51c2b;}</style>
  </defs>
  <path
     class="cls-2"
     d="m 248.97148,230.12 -108.35,29.72 c -27.16,7.45 -57.819996,-8.03 -68.129996,-34.41 l -41.11,-105.22 c -10.31,-26.38 3.48,-54.06 30.65,-61.51 L 170.38148,28.98 c 27.16,-7.45 57.82,8.03 68.13,34.41 l 41.11,105.22 c 10.31,26.38 -3.48,54.06 -30.65,61.51 z"
     id="path136" />
  <path
     class="cls-4"
     d="m 221.36148,255.74 -108.35,29.72 C 85.851484,292.91 55.191484,277.43 44.881484,251.05 L 3.7714838,145.83 c -10.31,-26.38 3.48,-54.06 30.6500002,-61.51 L 142.77148,54.6 c 27.16,-7.45 57.82,8.03 68.13,34.41 l 41.11,105.22 c 10.31,26.38 -3.48,54.06 -30.65,61.51 z"
     id="path138" />
  <circle
     class="cls-5"
     cx="71.681488"
     cy="146.75999"
     r="2.5799999"
     id="circle140" />
  <circle
     class="cls-5"
     cx="118.11148"
     cy="118.94"
     r="5.3099999"
     id="circle142" />
  <circle
     class="cls-5"
     cx="79.811478"
     cy="134.88"
     r="3.8699999"
     id="circle144" />
  <circle
     class="cls-5"
     cx="125.96149"
     cy="97.770004"
     r="2.5799999"
     id="circle146" />
  <circle
     class="cls-5"
     cx="106.98149"
     cy="95.369995"
     r="6"
     id="circle148" />
  <circle
     class="cls-5"
     cx="106.91148"
     cy="110.17"
     r="2.5799999"
     id="circle150" />
  <circle
     class="cls-5"
     cx="85.601486"
     cy="145.62"
     r="2.5799999"
     id="circle152" />
  <circle
     class="cls-5"
     cx="137.16148"
     cy="102.07001"
     r="2.5799999"
     id="circle154" />
  <circle
     class="cls-5"
     cx="135.54149"
     cy="86.449997"
     r="4.1799998"
     id="circle156" />
  <circle
     class="cls-5"
     cx="129.53148"
     cy="127.36"
     r="2.5799999"
     id="circle158" />
  <circle
     class="cls-5"
     cx="104.49149"
     cy="137.46001"
     r="7.46"
     id="circle160" />
  <circle
     class="cls-5"
     cx="157.9715"
     cy="90.630005"
     r="7.23"
     id="circle162" />
  <circle
     class="cls-5"
     cx="93.601486"
     cy="126.00999"
     r="5"
     id="circle164" />
  <circle
     class="cls-5"
     cx="144.06148"
     cy="114.57001"
     r="5.52"
     id="circle166" />
  <circle
     class="cls-5"
     cx="91.891479"
     cy="114.29001"
     r="4.3699999"
     id="circle168" />
  <circle
     class="cls-7"
     cx="87.661484"
     cy="165.97"
     r="4.5500002"
     id="circle170" />
  <circle
     class="cls-7"
     cx="88.641479"
     cy="187.14001"
     r="3.8699999"
     id="circle172" />
  <circle
     class="cls-8"
     cx="105.60149"
     cy="162.38"
     r="7.6599998"
     id="circle174" />
  <circle
     class="cls-7"
     cx="164.2515"
     cy="119.32001"
     r="3.01"
     id="circle176" />
  <circle
     class="cls-7"
     cx="111.74149"
     cy="175.28"
     r="3.01"
     id="circle178" />
  <circle
     class="cls-7"
     cx="168.30148"
     cy="138.63"
     r="3.01"
     id="circle180" />
  <circle
     class="cls-7"
     cx="132.65149"
     cy="163.17"
     r="4.0700002"
     id="circle182" />
  <circle
     class="cls-7"
     cx="178.82147"
     cy="127.77"
     r="5.0999999"
     id="circle184" />
  <circle
     class="cls-7"
     cx="133.78148"
     cy="136.31"
     r="3.01"
     id="circle186" />
  <circle
     class="cls-7"
     cx="151.1915"
     cy="130.75999"
     r="3.01"
     id="circle188" />
  <circle
     class="cls-7"
     cx="187.23148"
     cy="102.47"
     r="4.79"
     id="circle190" />
  <circle
     class="cls-6"
     cx="143.74149"
     cy="147.63"
     r="8.1999998"
     id="circle192" />
  <circle
     class="cls-7"
     cx="197.52148"
     cy="112.86"
     r="4.5999999"
     id="circle194" />
  <circle
     class="cls-9"
     cx="123.66148"
     cy="148.75999"
     r="5.2199998"
     id="circle196" />
  <circle
     class="cls-10"
     cx="104.06148"
     cy="208.56"
     r="5.8600001"
     id="circle198" />
  <circle
     class="cls-10"
     cx="133.59149"
     cy="172.39999"
     r="3.1300001"
     id="circle200" />
  <circle
     class="cls-10"
     cx="186.88147"
     cy="157.18001"
     r="5.6399999"
     id="circle202" />
  <circle
     class="cls-10"
     cx="111.91148"
     cy="189.26001"
     r="3.1300001"
     id="circle204" />
  <circle
     class="cls-10"
     cx="148.4715"
     cy="201.23001"
     r="3.1300001"
     id="circle206" />
  <circle
     class="cls-10"
     cx="132.33148"
     cy="189.12"
     r="7.1700001"
     id="circle208" />
  <circle
     class="cls-10"
     cx="121.62149"
     cy="214.38"
     r="5.5799999"
     id="circle210" />
  <circle
     class="cls-10"
     cx="166.38147"
     cy="185.69"
     r="4.2600002"
     id="circle212" />
  <circle
     class="cls-10"
     cx="196.73148"
     cy="163.36"
     r="3.1300001"
     id="circle214" />
  <circle
     class="cls-10"
     cx="174.57147"
     cy="149.78"
     r="3.1300001"
     id="circle216" />
  <circle
     class="cls-10"
     cx="154.31149"
     cy="172.79001"
     r="8.5500002"
     id="circle218" />
  <circle
     class="cls-10"
     cx="171.99149"
     cy="166.89999"
     r="3.1300001"
     id="circle220" />
  <circle
     class="cls-10"
     cx="199.24149"
     cy="142.59"
     r="3.1300001"
     id="circle222" />
  <circle
     class="cls-10"
     cx="159.89148"
     cy="156.63"
     r="3.1300001"
     id="circle224" />
  <circle
     class="cls-10"
     cx="218.30148"
     cy="142.92"
     r="3.1300001"
     id="circle226" />
  <circle
     class="cls-1"
     cx="170.02148"
     cy="212.12"
     r="3.29"
     id="circle228" />
  <circle
     class="cls-1"
     cx="159.4415"
     cy="204.82001"
     r="3.29"
     id="circle230" />
  <circle
     class="cls-1"
     cx="67.418388"
     cy="269.5054"
     r="5.5100002"
     transform="rotate(-32.65)"
     id="circle232" />
  <circle
     class="cls-1"
     cx="191.48148"
     cy="207.75"
     r="3.29"
     id="circle234" />
  <circle
     class="cls-1"
     cx="212.76147"
     cy="162.16"
     r="3.29"
     id="circle236" />
  <circle
     class="cls-1"
     cx="153.14148"
     cy="216.94"
     r="3.29"
     id="circle238" />
  <circle
     class="cls-1"
     cx="141.37149"
     cy="221.76999"
     r="5.5599999"
     id="circle240" />
  <circle
     class="cls-1"
     cx="138.24149"
     cy="209.91"
     r="3.29"
     id="circle242" />
  <circle
     class="cls-1"
     cx="184.13147"
     cy="189.95999"
     r="7.77"
     id="circle244" />
  <circle
     class="cls-1"
     cx="198.03149"
     cy="175.5"
     r="3.29"
     id="circle246" />
  <circle
     class="cls-1"
     cx="38.458542"
     cy="282.90982"
     r="5.71"
     transform="rotate(-32.65)"
     id="circle248" />
  <path
     class="cls-3"
     d="m 58.431484,158.09 39.24,-77.84 87.119996,-3.11 48.05,75.01 -38.89,78.38 -87.46,2.57 -48.049996,-75.01 z"
     id="path250" />
  <path
     class="cls-3"
     d="m 58.171484,158.26 33.77,-1.16 5.91,-76.59"
     id="path252" />
  <path
     class="cls-3"
     d="M 106.66148,233.36 91.491484,157 l 78.229996,-50.12 15.07,-29.75"
     id="path254" />
  <path
     class="cls-3"
     d="m 233.01148,152.41 -33.77,1.16 -77.96,49.95 -14.63,29.85"
     id="path256" />
  <path
     class="cls-3"
     d="m 193.95148,230.52 -72.66,-27.01 -62.679996,-45.16"
     id="path258" />
  <path
     class="cls-3"
     d="m 58.611484,158.36 57.319996,-49.62 68.76,-31.16"
     id="path260" />
  <path
     class="cls-3"
     d="m 97.671484,80.24 18.259996,28.5"
     id="path262" />
  <path
     class="cls-3"
     d="m 121.46148,203.79 -5.7,-95.31"
     id="path264" />
  <path
     class="cls-3"
     d="m 115.66148,108.91 84.03,44.75"
     id="path266" />
  <path
     class="cls-3"
     d="m 193.68148,230.7 5.57,-77.13"
     id="path268" />
  <path
     class="cls-3"
     d="m 232.75148,152.58 -63.2,-45.97 -72.149996,-26.2"
     id="path270" />
  <path
     class="cls-3"
     d="m 91.931484,157.1 83.319996,44.83 -5.36,-94.78"
     id="path272" />
  <path
     class="cls-3"
     d="m 193.95148,230.52 -18.6,-29.03 57.67,-49.08"
     id="path274" />
  <path
     class="cls-3"
     d="m 106.66148,233.36 68.42,-31.7"
     id="path276" />
  <path
     class="cls-3"
     d="m 199.25148,153.57 -14.46,-76.43"
     id="path278" />
  <path
     class="cls-11"
     d="m 89.971484,204.69 c -20.87,23.7 -56.94,26.06 -80.7300002,5.35 l -0.26,-0.23 c 0,0 0.08,0.07 0.13,0.11 -0.04,-0.04 -0.09,-0.07 -0.13,-0.11 l 0.26,0.23 c 23.5400002,20.98 25.7500002,57.06 4.8800002,80.76 -0.07,0.08 -0.15,0.17 -0.23,0.25 v 0 c 0.07,-0.08 0.15,-0.17 0.23,-0.25 20.87,-23.7 56.94,-26.06 80.72,-5.36 l 0.26,0.23 c 0,0 -0.08,-0.08 -0.13,-0.11 0.04,0.04 0.09,0.07 0.13,0.11 l -0.26,-0.23 c -23.54,-20.98 -25.75,-57.06 -4.87,-80.75 0.07,-0.08 0.15,-0.17 0.23,-0.25 v 0 c -0.07,0.08 -0.15,0.17 -0.23,0.25 z"
     id="path280" />
  <path
     class="cls-10"
     d="m 225.44148,0.15 c -11.69,13.27 -31.89,14.6 -45.22,3 l -0.14,-0.12 c 0,0 0.05,0.05 0.07,0.06 -0.03,-0.02 -0.05,-0.04 -0.07,-0.06 l 0.14,0.12 c 13.19,11.75 14.42,31.95 2.73,45.23 -0.04,0.05 -0.08,0.09 -0.13,0.14 0.04,-0.05 0.08,-0.1 0.12,-0.15 11.69,-13.27 31.89,-14.6 45.21,-3 l 0.14,0.13 c 0,0 -0.05,-0.05 -0.07,-0.06 0.03,0.02 0.05,0.04 0.07,0.06 l -0.14,-0.13 c -13.19,-11.75 -14.42,-31.96 -2.73,-45.23 0.04,-0.05 0.09,-0.09 0.13,-0.14 -0.04,0.05 -0.08,0.1 -0.12,0.15 h 0.02 z"
     id="path282" />
</svg>
