<?xml version="1.0" encoding="UTF-8" standalone="no"?>
<svg
   id="Layer_1"
   viewBox="0 0 320.17999 298.72"
   version="1.1"
   sodipodi:docname="programmable-data.svg"
   width="320.17999"
   height="298.72"
   inkscape:version="1.2.1 (9c6d41e, 2022-07-14)"
   xmlns:inkscape="http://www.inkscape.org/namespaces/inkscape"
   xmlns:sodipodi="http://sodipodi.sourceforge.net/DTD/sodipodi-0.dtd"
   xmlns="http://www.w3.org/2000/svg"
   xmlns:svg="http://www.w3.org/2000/svg">
  <sodipodi:namedview
     id="namedview181"
     pagecolor="#ffffff"
     bordercolor="#000000"
     borderopacity="0.25"
     inkscape:showpageshadow="2"
     inkscape:pageopacity="0.0"
     inkscape:pagecheckerboard="0"
     inkscape:deskcolor="#d1d1d1"
     showgrid="false"
     inkscape:zoom="0.472"
     inkscape:cx="-42.372881"
     inkscape:cy="161.01695"
     inkscape:window-width="1309"
     inkscape:window-height="430"
     inkscape:window-x="0"
     inkscape:window-y="1202"
     inkscape:window-maximized="0"
     inkscape:current-layer="Layer_1" />
  <defs
     id="defs142">
    <style
       id="style132">.cls-1,.cls-2,.cls-3,.cls-4{fill:none;}.cls-5{fill:#3f3f3f;stroke:#1d1d1b;}.cls-5,.cls-2,.cls-6,.cls-4,.cls-7{stroke-linecap:round;}.cls-5,.cls-6,.cls-7{stroke-linejoin:round;}.cls-5,.cls-7{stroke-width:.34px;}.cls-2{stroke-dasharray:1.94 3.87 1.94 3.87 1.94 3.87;stroke-width:1.13px;}.cls-2,.cls-4{stroke:#191919;stroke-linejoin:bevel;}.cls-8{fill:url(#radial-gradient);}.cls-6{fill:lime;stroke-width:.37px;}.cls-6,.cls-3,.cls-7{stroke:#000;}.cls-9{fill:#c10000;}.cls-3{stroke-miterlimit:10;}.cls-3,.cls-4{stroke-width:1.36px;}.cls-4{stroke-dasharray:2.34 4.67 2.34 4.67 2.34 4.67;}.cls-10,.cls-7{fill:#fff;}.cls-11{fill:#440212;}.cls-12{fill:#f51c2b;}.cls-13{fill:#353535;}.cls-14{clip-path:url(#clippath);}</style>
    <clipPath
       id="clippath">
      <rect
         class="cls-1"
         x="89.910004"
         y="87.980003"
         width="320.17999"
         height="298.72"
         id="rect134" />
    </clipPath>
    <radialGradient
       id="radial-gradient"
       cx="249.62"
       cy="499.81"
       fx="249.62"
       fy="499.81"
       r="0.67000002"
       gradientTransform="matrix(22.25,0,0,-22.25,-5298.89,11327.25)"
       gradientUnits="userSpaceOnUse">
      <stop
         offset="0"
         stop-color="#000"
         id="stop137" />
      <stop
         offset="1"
         stop-color="#000"
         stop-opacity="0"
         id="stop139" />
    </radialGradient>
  </defs>
  <g
     class="cls-14"
     clip-path="url(#clippath)"
     id="g174"
     transform="translate(-89.910004,-87.980003)">
    <path
       class="cls-12"
       d="m 252.9,111.52 -114.26,64.26 -1.48,131.08 112.79,66.82 114.26,-64.26 1.48,-131.09 -112.79,-66.82 z"
       id="path144" />
    <path
       class="cls-3"
       d="m 252.76,112.16 -113.91,64.07 -1.48,130.68 112.45,66.62 113.91,-64.07 1.48,-130.69 -112.45,-66.62 z"
       id="path146" />
    <path
       class="cls-3"
       d="m 183.51,201.71 69.25,-89.55 69.18,91.58"
       id="path148" />
    <path
       class="cls-3"
       d="M 365.21,178.78 321.94,203.74 250.61,323.49 137.37,306.92 183.51,201.71 138.85,176.23"
       id="path150" />
    <path
       class="cls-3"
       d="m 249.82,373.54 0.79,-50.05 113.12,-14.02 -41.79,-105.73"
       id="path152" />
    <path
       class="cls-3"
       d="m 183.51,201.71 67.1,121.78"
       id="path154" />
    <path
       class="cls-4"
       d="m 320.95,154.28 c 52.46,15.36 88.51,47.24 88.51,84.07 0,51.83 -71.39,93.84 -159.45,93.84 -88.06,0 -159.46,-42.01 -159.46,-93.84 0,-33.74 30.26,-63.32 75.67,-79.86"
       id="path156" />
    <path
       class="cls-9"
       d="m 252.76,112.16 -69.25,89.55 67.1,121.78 71.33,-119.75 z"
       id="path158" />
    <path
       class="cls-13"
       d="m 252.72,125.13 -57.6,76.75 55.48,106.69 62.71,-104.83 -60.6,-78.61 z"
       id="path160" />
    <path
       class="cls-2"
       d="m 250,244.13 c 73.02,0 132.22,-34.84 132.22,-77.81 0,-42.97 -59.2,-77.81 -132.22,-77.81 -73.02,0 -132.22,34.84 -132.22,77.81 0,42.97 59.2,77.81 132.22,77.81 z"
       id="path162" />
    <path
       class="cls-2"
       d="m 364.66,269.58 c 11.17,11.42 17.56,24.66 17.56,38.78 0,42.97 -59.2,77.81 -132.22,77.81 -73.02,0 -132.22,-34.84 -132.22,-77.81 0,-15.05 7.26,-29.1 19.83,-41.01"
       id="path164" />
    <path
       class="cls-7"
       d="m 254.26,183.45 c -26.03,-0.04 -47.16,24.78 -47.16,24.78 0,0 21.08,24.88 47.11,24.91 26.03,0.04 47.16,-24.78 47.16,-24.78 0,0 -21.08,-24.88 -47.11,-24.91 z"
       id="path166" />
    <path
       class="cls-5"
       d="m 274.59,215.32 c -3.88,11.26 -16.14,17.25 -27.38,13.39 -11.24,-3.87 -17.22,-16.14 -13.34,-27.41 3.88,-11.26 16.14,-17.25 27.38,-13.39 11.24,3.87 17.22,16.14 13.34,27.41 z"
       id="path168" />
    <path
       class="cls-8"
       d="m 254.22,222.77 c 8.41,0 15.23,-6.47 15.23,-14.46 0,-7.99 -6.82,-14.46 -15.23,-14.46 -8.41,0 -15.23,6.47 -15.23,14.46 0,7.99 6.82,14.46 15.23,14.46 z"
       id="path170"
       style="fill:url(#radial-gradient)" />
    <path
       class="cls-6"
       d="m 281.93,170.68 -63.97,63.97 8.58,8.58 63.97,-63.97 z"
       id="path172" />
  </g>
  <polygon
     class="cls-10"
     points="247,115.4 139.28,176.73 138.28,268.35 144.97,192.23 "
     id="polygon176"
     transform="translate(-89.910004,-87.980003)" />
  <polygon
     class="cls-11"
     points="365.52,249.06 365.52,311.43 249.95,373.69 349.88,303.65 "
     id="polygon178"
     transform="translate(-89.910004,-87.980003)" />
</svg>
