<?xml version="1.0" encoding="UTF-8" standalone="no"?>
<svg
   id="Layer_1"
   viewBox="0 0 302 348.7226"
   version="1.1"
   sodipodi:docname="scale-free.svg"
   width="302"
   height="348.7226"
   inkscape:version="1.2.1 (9c6d41e, 2022-07-14)"
   xmlns:inkscape="http://www.inkscape.org/namespaces/inkscape"
   xmlns:sodipodi="http://sodipodi.sourceforge.net/DTD/sodipodi-0.dtd"
   xmlns="http://www.w3.org/2000/svg"
   xmlns:svg="http://www.w3.org/2000/svg">
  <sodipodi:namedview
     id="namedview360"
     pagecolor="#ffffff"
     bordercolor="#000000"
     borderopacity="0.25"
     inkscape:showpageshadow="2"
     inkscape:pageopacity="0.0"
     inkscape:pagecheckerboard="0"
     inkscape:deskcolor="#d1d1d1"
     showgrid="false"
     inkscape:zoom="0.472"
     inkscape:cx="-48.728814"
     inkscape:cy="171.61017"
     inkscape:window-width="1309"
     inkscape:window-height="430"
     inkscape:window-x="0"
     inkscape:window-y="1202"
     inkscape:window-maximized="0"
     inkscape:current-layer="Layer_1" />
  <defs
     id="defs311">
    <style
       id="style309">.cls-1{stroke-dasharray:2.26 1.13 2.26 1.13;stroke-miterlimit:10;stroke-width:.7px;}.cls-1,.cls-2,.cls-3,.cls-4,.cls-5{fill:none;stroke:red;}.cls-6{fill:#fc0206;}.cls-2{stroke-width:.34px;}.cls-7{fill:#f51c2b;}.cls-3{stroke-width:1.37px;}.cls-4{stroke-width:1.72px;}.cls-5{stroke-width:.69px;}</style>
  </defs>
  <path
     class="cls-3"
     d="m 93.51,141.1663 57.49,-33.19 57.49,33.19 v 66.38 l -57.49,33.19 -57.49,-33.19 z"
     id="path313" />
  <path
     class="cls-5"
     d="M 49.49,115.7563 151.01,57.146298 252.53,115.7563 v 117.22 l -101.52,58.61 -101.52,-58.61 z"
     id="path315" />
  <path
     class="cls-2"
     d="M 0.17,87.276298 151,0.19629811 301.83,87.276298 V 261.4463 L 151,348.5263 0.17,261.4463 Z"
     id="path317" />
  <path
     class="cls-4"
     d="m 125.91,159.8763 25.1,-14.49 25.1,14.49 v 28.98 l -25.1,14.49 -25.1,-14.49 z"
     id="path319" />
  <path
     class="cls-1"
     d="m 246.66,84.196298 -15.62,34.100002 -51.58,-1.32 1.51,50.42"
     id="path321" />
  <path
     class="cls-1"
     d="m 268.62,101.9563 -37.58,16.34"
     id="path323" />
  <path
     class="cls-7"
     d="m 231.04,132.2263 c 7.7,0 13.94,-6.24 13.94,-13.94 0,-7.7 -6.24,-13.94 -13.94,-13.94 -7.7,0 -13.94,6.24 -13.94,13.94 0,7.7 6.24,13.94 13.94,13.94 z"
     id="path325" />
  <path
     class="cls-7"
     d="m 246.66,91.166298 c 3.85,0 6.97,-3.12 6.97,-6.97 0,-3.85 -3.12,-6.97 -6.97,-6.97 -3.85,0 -6.97,3.12 -6.97,6.97 0,3.85 3.12,6.97 6.97,6.97 z"
     id="path327" />
  <path
     class="cls-7"
     d="m 179.46,123.9363 c 3.85,0 6.97,-3.12 6.97,-6.97 0,-3.85 -3.12,-6.97 -6.97,-6.97 -3.85,0 -6.97,3.12 -6.97,6.97 0,3.85 3.12,6.97 6.97,6.97 z"
     id="path329" />
  <path
     class="cls-7"
     d="m 180.97,174.3663 c 3.85,0 6.97,-3.12 6.97,-6.97 0,-3.85 -3.12,-6.97 -6.97,-6.97 -3.85,0 -6.97,3.12 -6.97,6.97 0,3.85 3.12,6.97 6.97,6.97 z"
     id="path331" />
  <path
     class="cls-7"
     d="m 268.62,108.9263 c 3.85,0 6.97,-3.12 6.97,-6.97 0,-3.850002 -3.12,-6.970002 -6.97,-6.970002 -3.85,0 -6.97,3.12 -6.97,6.970002 0,3.85 3.12,6.97 6.97,6.97 z"
     id="path333" />
  <path
     class="cls-1"
     d="m 156.11,220.8263 15.57,26.11 -13.94,24.5"
     id="path335" />
  <path
     class="cls-1"
     d="m 89.22,243.4763 19.56,30.23"
     id="path337" />
  <path
     class="cls-1"
     d="m 156.11,220.8263 -66.89,22.65"
     id="path339" />
  <path
     class="cls-1"
     d="m 122.72,122.4663 -6.97,41.79 40.36,56.57 -40.36,-56.57 -45.49,-64.08"
     id="path341" />
  <path
     class="cls-7"
     d="m 115.75,178.1963 c 7.7,0 13.94,-6.24 13.94,-13.94 0,-7.7 -6.24,-13.94 -13.94,-13.94 -7.7,0 -13.94,6.24 -13.94,13.94 0,7.7 6.24,13.94 13.94,13.94 z"
     id="path343" />
  <path
     class="cls-7"
     d="m 70.26,107.1463 c 3.85,0 6.97,-3.12 6.97,-6.97 0,-3.850002 -3.12,-6.970002 -6.97,-6.970002 -3.85,0 -6.97,3.12 -6.97,6.970002 0,3.85 3.12,6.97 6.97,6.97 z"
     id="path345" />
  <path
     class="cls-7"
     d="m 122.72,129.4263 c 3.85,0 6.97,-3.12 6.97,-6.97 0,-3.85 -3.12,-6.97 -6.97,-6.97 -3.85,0 -6.97,3.12 -6.97,6.97 0,3.85 3.12,6.97 6.97,6.97 z"
     id="path347" />
  <path
     class="cls-6"
     d="m 89.22,250.4363 c 3.85,0 6.97,-3.12 6.97,-6.97 0,-3.85 -3.12,-6.97 -6.97,-6.97 -3.85,0 -6.97,3.12 -6.97,6.97 0,3.85 3.12,6.97 6.97,6.97 z"
     id="path349" />
  <path
     class="cls-7"
     d="m 156.11,234.7663 c 7.7,0 13.94,-6.24 13.94,-13.94 0,-7.7 -6.24,-13.94 -13.94,-13.94 -7.7,0 -13.94,6.24 -13.94,13.94 0,7.7 6.24,13.94 13.94,13.94 z"
     id="path351" />
  <path
     class="cls-7"
     d="m 108.78,280.6763 c 3.85,0 6.97,-3.12 6.97,-6.97 0,-3.85 -3.12,-6.97 -6.97,-6.97 -3.85,0 -6.97,3.12 -6.97,6.97 0,3.85 3.12,6.97 6.97,6.97 z"
     id="path353" />
  <path
     class="cls-6"
     d="m 171.68,253.9063 c 3.85,0 6.97,-3.12 6.97,-6.97 0,-3.85 -3.12,-6.97 -6.97,-6.97 -3.85,0 -6.97,3.12 -6.97,6.97 0,3.85 3.12,6.97 6.97,6.97 z"
     id="path355" />
  <path
     class="cls-6"
     d="m 157.74,278.4063 c 3.85,0 6.97,-3.12 6.97,-6.97 0,-3.85 -3.12,-6.97 -6.97,-6.97 -3.85,0 -6.97,3.12 -6.97,6.97 0,3.85 3.12,6.97 6.97,6.97 z"
     id="path357" />
</svg>
